<svg width="24" height="24" viewBox="0 0 24 24" fill="none" xmlns="http://www.w3.org/2000/svg">
<path d="M21.4202 18C22.5168 16.1888 23.1087 14.1171 23.1345 12C23.1087 9.88286 22.5168 7.81118 21.4202 6" stroke="black" stroke-width="1.14286" stroke-linecap="round" stroke-linejoin="round"/>
<path d="M18 9.42859C18.5959 10.1491 18.9015 11.066 18.8571 12C18.9015 12.934 18.5959 13.8509 18 14.5714" stroke="black" stroke-width="1.14286" stroke-linecap="round" stroke-linejoin="round"/>
<path d="M5.14289 8.57151H2.57146C1.63775 8.57151 0.857178 9.35208 0.857178 10.2858V13.7144C0.857178 14.6481 1.63775 15.4287 2.57146 15.4287H5.14289L11.8457 20.2458C12.952 21.0112 14.5415 20.2053 14.5715 18.8572V5.14291C14.6036 3.79404 13.1093 2.9868 12 3.75433L5.14289 8.57151Z" stroke="black" stroke-width="1.14286" stroke-linecap="round" stroke-linejoin="round"/>
</svg>
