<svg width="64" height="64" viewBox="0 0 64 64" fill="none" xmlns="http://www.w3.org/2000/svg">
<circle cx="32" cy="32" r="32" fill="#FF525C"/>
<g clip-path="url(#clip0_310_169)">
<path fill-rule="evenodd" clip-rule="evenodd" d="M16.8771 12.8371C16.3382 12.3167 15.6165 12.0287 14.8674 12.0352C14.1182 12.0417 13.4016 12.3422 12.8719 12.8719C12.3422 13.4017 12.0417 14.1183 12.0352 14.8674C12.0287 15.6166 12.3166 16.3383 12.8371 16.8771L27.96 32L12.8371 47.1229C12.5642 47.3864 12.3465 47.7017 12.1968 48.0503C12.0471 48.3989 11.9682 48.7738 11.965 49.1531C11.9617 49.5325 12.0339 49.9087 12.1776 50.2599C12.3213 50.611 12.5334 50.93 12.8017 51.1983C13.0699 51.4665 13.389 51.6787 13.7401 51.8223C14.0912 51.966 14.4674 52.0383 14.8468 52.035C15.2262 52.0317 15.6011 51.9529 15.9497 51.8031C16.2983 51.6534 16.6135 51.4357 16.8771 51.1629L32 36.04L47.1228 51.1629C47.6617 51.6833 48.3834 51.9713 49.1325 51.9648C49.8817 51.9583 50.5983 51.6578 51.128 51.128C51.6577 50.5983 51.9582 49.8817 51.9647 49.1326C51.9712 48.3834 51.6833 47.6617 51.1628 47.1229L36.04 32L51.1628 16.8771C51.6833 16.3383 51.9712 15.6166 51.9647 14.8674C51.9582 14.1183 51.6577 13.4017 51.128 12.8719C50.5983 12.3422 49.8817 12.0417 49.1325 12.0352C48.3834 12.0287 47.6617 12.3167 47.1228 12.8371L32 27.96L16.8771 12.8371Z" fill="white"/>
</g>
<defs>
<clipPath id="clip0_310_169">
<rect width="40" height="40" fill="white" transform="translate(12 12)"/>
</clipPath>
</defs>
</svg>
