<svg width="64" height="64" viewBox="0 0 64 64" fill="none" xmlns="http://www.w3.org/2000/svg">
<circle cx="32" cy="32" r="32" fill="#6CDA7E"/>
<g clip-path="url(#clip0_310_221)">
<path fill-rule="evenodd" clip-rule="evenodd" d="M50.9629 15.4229C51.2522 15.6618 51.4916 15.9555 51.6674 16.287C51.8432 16.6185 51.952 16.9814 51.9876 17.355C52.0231 17.7285 51.9847 18.1055 51.8746 18.4642C51.7645 18.8229 51.5848 19.1564 51.3457 19.4457L28.3743 47.2457L28.3657 47.2514C27.8436 47.8794 27.1879 48.383 26.4465 48.7255C25.7051 49.068 24.8966 49.2409 24.08 49.2314C23.2512 49.2213 22.4353 49.0239 21.6936 48.6538C20.9519 48.2836 20.3036 47.7505 19.7972 47.0943L19.7943 47.0886L12.6 37.8429C12.3598 37.5478 12.1809 37.2077 12.0739 36.8426C11.9669 36.4774 11.9339 36.0946 11.9768 35.7166C12.0198 35.3385 12.1378 34.9728 12.324 34.641C12.5102 34.3092 12.7607 34.0179 13.061 33.7842C13.3613 33.5505 13.7052 33.3792 14.0726 33.2802C14.44 33.1812 14.8235 33.1567 15.2005 33.2079C15.5775 33.2591 15.9405 33.3852 16.2682 33.5786C16.5958 33.772 16.8816 34.0289 17.1086 34.3343L24.1486 43.3829L46.9372 15.8057C47.1761 15.5164 47.4698 15.277 47.8013 15.1012C48.1328 14.9253 48.4957 14.8166 48.8693 14.781C49.2428 14.7454 49.6198 14.7838 49.9785 14.894C50.3372 15.0041 50.6707 15.1838 50.96 15.4229H50.9629Z" fill="white"/>
</g>
<defs>
<clipPath id="clip0_310_221">
<rect width="40" height="40" fill="white" transform="translate(12 12)"/>
</clipPath>
</defs>
</svg>
