<svg width="48" height="48" viewBox="0 0 48 48" fill="none" xmlns="http://www.w3.org/2000/svg">
<path d="M42.8403 36C45.0336 32.3776 46.2175 28.2343 46.2689 24C46.2175 19.7657 45.0336 15.6224 42.8403 12" stroke="black" stroke-width="1.14286" stroke-linecap="round" stroke-linejoin="round"/>
<path d="M36 18.8572C37.1918 20.2982 37.8031 22.1321 37.7143 24C37.8031 25.868 37.1918 27.7019 36 29.1429" stroke="black" stroke-width="1.14286" stroke-linecap="round" stroke-linejoin="round"/>
<path d="M10.2858 17.1429H5.14293C3.2755 17.1429 1.71436 18.704 1.71436 20.5715V27.4286C1.71436 29.296 3.2755 30.8572 5.14293 30.8572H10.2858L23.6915 40.4914C25.904 42.0223 29.0831 40.4105 29.1429 37.7143V10.2857C29.2072 7.58795 26.2187 5.97347 24.0001 7.50855L10.2858 17.1429Z" stroke="black" stroke-width="1.14286" stroke-linecap="round" stroke-linejoin="round"/>
</svg>
